<?xml version="1.0" encoding="utf-8"?>
<!-- Generator: Adobe Illustrator 23.0.3, SVG Export Plug-In . SVG Version: 6.00 Build 0)  -->
<svg version="1.1" xmlns="http://www.w3.org/2000/svg" xmlns:xlink="http://www.w3.org/1999/xlink" x="0px" y="0px"
	 viewBox="0 0 336.26 84.26" style="enable-background:new 0 0 336.26 84.26;" xml:space="preserve">
<g id="Text">
	<path id="path847" d="M304.25,36.56l10.63-10.44v5.91h9.04v5.1h-9.04v14.02c0,3.27,1.36,4.91,4.07,4.91c2.03,0,4.18-0.68,6.43-2.05
		v5.28c-2.18,1.22-4.55,1.83-7.12,1.83c-2.59,0-4.74-0.76-6.46-2.27c-0.54-0.46-0.98-0.96-1.34-1.52c-0.35-0.58-0.65-1.33-0.9-2.24
		c-0.23-0.93-0.34-2.69-0.34-5.28V37.12h-4.97L304.25,36.56z M302.15,53.93v5.59c-2.84,1.06-5.62,1.59-8.33,1.59
		c-4.48,0-8.05-1.33-10.72-3.98c-2.65-2.65-3.98-6.21-3.98-10.66c0-4.5,1.3-8.12,3.89-10.88c2.59-2.76,6-4.13,10.23-4.13
		c1.47,0,2.79,0.15,3.95,0.44c1.18,0.27,2.63,0.79,4.35,1.55v6.03c-2.86-1.82-5.51-2.74-7.96-2.74c-2.55,0-4.64,0.9-6.28,2.7
		c-1.64,1.78-2.46,4.06-2.46,6.84c0,2.92,0.88,5.24,2.64,6.96c1.78,1.72,4.18,2.58,7.18,2.58C296.83,55.83,299.33,55.2,302.15,53.93
		L302.15,53.93z M274.9,46.82H254.8c0.15,2.74,1.06,4.91,2.74,6.53c1.7,1.62,3.89,2.42,6.56,2.42c3.73,0,7.17-1.16,10.32-3.48v5.53
		c-1.74,1.16-3.47,1.99-5.19,2.49c-1.7,0.5-3.7,0.75-6,0.75c-3.15,0-5.7-0.65-7.65-1.96c-1.95-1.31-3.51-3.06-4.69-5.25
		c-1.16-2.22-1.74-4.78-1.74-7.68c0-4.35,1.23-7.88,3.7-10.6c2.47-2.74,5.67-4.1,9.6-4.1c3.79,0,6.82,1.33,9.08,3.98
		c2.26,2.65,3.39,6.21,3.39,10.66L274.9,46.82z M254.92,43.43h14.39c-0.15-2.26-0.82-4-2.02-5.22s-2.82-1.83-4.85-1.83
		s-3.7,0.61-5,1.83C256.15,39.43,255.31,41.17,254.92,43.43L254.92,43.43z M218.63,75.19V32.02h9.91c5.08,0,9.02,1.26,11.84,3.79
		c2.84,2.53,4.26,6.06,4.26,10.6c0,4.29-1.34,7.81-4.01,10.57c-2.65,2.76-6.04,4.13-10.16,4.13c-1.82,0-3.84-0.4-6.06-1.21v15.29
		L218.63,75.19z M228.42,37.31h-4.01V54.9c1.74,0.89,3.56,1.34,5.47,1.34c2.65,0,4.82-0.92,6.5-2.77c1.7-1.84,2.55-4.22,2.55-7.12
		c0-1.86-0.4-3.51-1.21-4.94c-0.79-1.43-1.88-2.47-3.26-3.11C233.08,37.64,231.07,37.31,228.42,37.31L228.42,37.31z M201.61,42.4
		l-4.72-2.86c-2.96-1.8-5.08-3.57-6.34-5.31c-1.24-1.76-1.86-3.78-1.86-6.06c0-3.42,1.18-6.2,3.54-8.33c2.38-2.13,5.47-3.2,9.26-3.2
		c3.63,0,6.95,1.02,9.98,3.05v7.06c-3.13-3-6.5-4.51-10.1-4.51c-2.03,0-3.7,0.48-5,1.43c-1.31,0.93-1.96,2.13-1.96,3.61
		c0,1.31,0.48,2.53,1.43,3.67c0.95,1.14,2.5,2.33,4.63,3.57l4.76,2.8c5.3,3.15,7.96,7.17,7.96,12.06c0,3.48-1.17,6.31-3.51,8.48
		c-2.32,2.18-5.35,3.26-9.08,3.26c-4.29,0-8.19-1.32-11.72-3.95v-7.89c3.36,4.25,7.24,6.37,11.66,6.37c1.95,0,3.56-0.54,4.85-1.62
		c1.31-1.1,1.96-2.47,1.96-4.1C207.33,47.27,205.42,44.77,201.61,42.4L201.61,42.4z M184.33,46.82h-20.11
		c0.15,2.74,1.06,4.91,2.74,6.53c1.7,1.62,3.89,2.42,6.56,2.42c3.73,0,7.17-1.16,10.32-3.48v5.53c-1.74,1.16-3.47,1.99-5.19,2.49
		c-1.7,0.5-3.7,0.75-6,0.75c-3.15,0-5.7-0.65-7.65-1.96c-1.95-1.31-3.51-3.06-4.69-5.25c-1.16-2.22-1.74-4.78-1.74-7.68
		c0-4.35,1.23-7.88,3.7-10.6c2.47-2.74,5.67-4.1,9.6-4.1c3.79,0,6.82,1.33,9.08,3.98c2.26,2.65,3.39,6.21,3.39,10.66L184.33,46.82z
		 M164.34,43.43h14.39c-0.15-2.26-0.82-4-2.02-5.22c-1.2-1.22-2.82-1.83-4.85-1.83s-3.7,0.61-5,1.83
		C165.57,39.43,164.74,41.17,164.34,43.43L164.34,43.43z M150.32,32.02h6.74l-12.21,14.02l14.7,14.58h-7.58l-14.33-14.58
		L150.32,32.02z M131.74,17.2h5.66v43.42h-5.66V17.2z M122.77,43.43v12.15c0,0.97,0.33,1.46,0.99,1.46c0.68,0,1.75-0.51,3.2-1.52
		v3.45c-1.28,0.83-2.32,1.39-3.11,1.68c-0.77,0.31-1.57,0.47-2.42,0.47c-2.42,0-3.85-0.95-4.29-2.86c-2.4,1.86-4.96,2.8-7.68,2.8
		c-1.99,0-3.65-0.65-4.97-1.96c-1.33-1.33-1.99-2.98-1.99-4.97c0-1.8,0.64-3.41,1.93-4.82c1.31-1.43,3.15-2.56,5.53-3.39l7.24-2.49
		v-1.52c0-3.44-1.72-5.16-5.16-5.16c-3.09,0-6.09,1.6-9.01,4.79v-6.18c2.2-2.59,5.36-3.89,9.48-3.89c3.09,0,5.56,0.81,7.43,2.42
		c0.62,0.52,1.18,1.21,1.68,2.08c0.5,0.85,0.81,1.71,0.93,2.58C122.69,39.4,122.77,41.03,122.77,43.43L122.77,43.43z M117.2,54.96
		v-8.48l-3.79,1.46c-1.93,0.77-3.29,1.54-4.1,2.33c-0.79,0.77-1.18,1.73-1.18,2.89c0,1.18,0.37,2.14,1.12,2.89
		c0.77,0.75,1.75,1.12,2.95,1.12C114,57.17,115.67,56.43,117.2,54.96L117.2,54.96z M91.48,60.62v-3.64
		c-1.2,1.31-2.58,2.32-4.13,3.05c-1.53,0.73-3.07,1.09-4.6,1.09c-1.8,0-3.47-0.45-5-1.34c-1.51-0.91-2.66-2.13-3.45-3.67
		c-0.77-1.55-1.15-4.12-1.15-7.71V32.02h5.66v16.32c0,3,0.42,5.11,1.27,6.31c0.87,1.18,2.38,1.77,4.54,1.77
		c2.69,0,4.98-1.32,6.87-3.95V32.02h5.66v28.59H91.48z"/>
</g>
<g id="Q">
	<path d="M40.37,28.14c-7.18,0-13,5.82-13,13s5.82,13,13,13s13-5.82,13-13S47.55,28.14,40.37,28.14z M40.37,52.14
		c-6.08,0-11-4.92-11-11s4.92-11,11-11s11,4.92,11,11S46.45,52.14,40.37,52.14z"/>
	<circle cx="40.37" cy="41.14" r="6"/>
	<path d="M69.87,65.14c-0.18,0-0.35,0.01-0.52,0.03L58.92,54.74c2.8-3.81,4.45-8.51,4.45-13.6c0-12.7-10.3-23-23-23s-23,10.3-23,23
		c0,12.7,10.3,23,23,23c5.09,0,9.79-1.66,13.6-4.45L64.4,70.11c-0.02,0.17-0.03,0.35-0.03,0.52c0,3.04,2.46,5.5,5.5,5.5
		s5.5-2.46,5.5-5.5C75.37,67.6,72.91,65.14,69.87,65.14z M40.37,59.14c-9.94,0-18-8.06-18-18c0-9.94,8.06-18,18-18s18,8.06,18,18
		C58.37,51.08,50.31,59.14,40.37,59.14z"/>
	<path d="M54.82,63.94c-4.18,2.65-9.13,4.2-14.45,4.2c-14.91,0-27-12.09-27-27s12.09-27,27-27s27,12.09,27,27
		c0,5.79-1.83,11.16-4.94,15.55l2.87,2.87c3.81-5.15,6.07-11.52,6.07-18.42c0-17.12-13.88-31-31-31s-31,13.88-31,31
		c0,17.12,13.88,31,31,31c6.43,0,12.39-1.96,17.34-5.3L54.82,63.94z"/>
</g>
</svg>
