<?xml version="1.0" encoding="utf-8"?>
<!-- Generator: Adobe Illustrator 23.0.3, SVG Export Plug-In . SVG Version: 6.00 Build 0)  -->
<svg version="1.1" xmlns="http://www.w3.org/2000/svg" xmlns:xlink="http://www.w3.org/1999/xlink" x="0px" y="0px"
	 viewBox="0 0 200 200" style="enable-background:new 0 0 200 200;" xml:space="preserve">
<style type="text/css">
	.st0{display:none;}
	.st1{display:inline;fill:#C5BD99;}
	.st2{display:inline;}
	.st3{fill:#C5BD99;}
</style>
<g id="Layer_1" class="st0">
	<path class="st1" d="M100,4C46.98,4,4,46.98,4,100s42.98,96,96,96s96-42.98,96-96C195.94,47.01,152.99,4.06,100,4z M183.03,133.63
		l-27.3,4.71c3.13-11.46,4.81-23.27,5.02-35.14h28.77C189.16,113.65,186.96,123.95,183.03,133.63z M10.48,103.2h28.77
		c0.21,11.88,1.9,23.68,5.02,35.14l-27.3-4.71C13.04,123.95,10.84,113.65,10.48,103.2z M16.97,66.37l27.3-4.71
		c-3.12,11.46-4.81,23.27-5.02,35.14H10.48C10.84,86.35,13.04,76.05,16.97,66.37z M103.2,55.38c11.5,0.15,22.97,1.19,34.3,3.13
		l11.3,1.95c3.47,11.81,5.34,24.03,5.55,36.34H103.2V55.38z M138.6,52.2c-11.7-2-23.53-3.08-35.4-3.23v-38.4
		c18.35,1.76,34.28,18.56,43.31,43L138.6,52.2z M96.8,48.98c-11.86,0.15-23.7,1.23-35.39,3.23l-7.92,1.37
		c9.03-24.45,24.97-41.25,43.31-43.01V48.98z M62.5,58.51c11.33-1.94,22.8-2.99,34.3-3.13V96.8H45.65
		c0.21-12.31,2.08-24.53,5.55-36.34L62.5,58.51z M45.65,103.2H96.8v41.42c-11.5-0.15-22.97-1.19-34.3-3.13l-11.3-1.95
		C47.73,127.73,45.86,115.51,45.65,103.2z M61.4,147.8c11.7,2,23.53,3.09,35.4,3.24v38.4c-18.35-1.76-34.28-18.56-43.31-43.01
		L61.4,147.8z M103.2,151.04c11.86-0.16,23.7-1.24,35.39-3.24l7.92-1.37c-9.03,24.45-24.97,41.25-43.31,43.01V151.04z M137.5,141.49
		c-11.33,1.94-22.8,2.99-34.3,3.13V103.2h51.15c-0.21,12.31-2.08,24.53-5.55,36.34L137.5,141.49z M160.75,96.8
		c-0.21-11.88-1.9-23.68-5.02-35.14l27.3,4.71c3.93,9.68,6.13,19.98,6.49,30.43H160.75z M179.79,59.32l-26.17-4.52
		c-4.7-15.35-13.51-29.12-25.46-39.84C150.51,22.42,169.05,38.34,179.79,59.32z M71.84,14.96C59.89,25.68,51.09,39.45,46.38,54.8
		l-26.17,4.52C30.95,38.34,49.49,22.42,71.84,14.96z M20.21,140.68l26.17,4.52c4.7,15.35,13.51,29.12,25.46,39.84
		C49.49,177.58,30.95,161.66,20.21,140.68z M128.16,185.04c11.95-10.72,20.75-24.49,25.46-39.84l26.17-4.52
		C169.05,161.66,150.51,177.58,128.16,185.04z"/>
</g>
<g id="Layer_2" class="st0">
	<g class="st2">
		<g>
			<path class="st3" d="M193.29,68.98l-19.84-14.1c0.07-0.28,0.12-0.58,0.12-0.88V22.15c0-1.95-1.58-3.54-3.54-3.54h-21.23
				c-1.95,0-3.54,1.58-3.54,3.54v12.7l-36.87-26.2c-0.6-0.43-1.31-0.65-2.05-0.65H91.79c-0.75,0-1.48,0.24-2.08,0.68L6.69,69
				c-6.31,4.58-7.71,13.45-3.12,19.76c2.22,3.05,5.5,5.06,9.23,5.66c0.76,0.12,1.51,0.18,2.26,0.18c0.96,0,1.9-0.11,2.83-0.3v83.56
				c0,7.8,6.36,14.14,14.18,14.14H74.5h49.54h42.44c7.82,0,14.18-6.34,14.18-14.14V93.91c2.09,0.67,4.32,0.86,6.56,0.51
				c3.73-0.59,7.01-2.6,9.23-5.66C201.02,82.45,199.62,73.58,193.29,68.98z M152.34,39.85V25.69h14.15v24.25l-14.16-10.06
				C152.34,39.87,152.34,39.86,152.34,39.85z M120.5,184.92H78.04v-53.08h42.46V184.92z M173.57,177.86c0,3.9-3.19,7.06-7.1,7.06
				h-38.9v-56.62c0-1.95-1.58-3.54-3.54-3.54H74.5c-1.95,0-3.54,1.58-3.54,3.54v56.62h-38.9c-3.92,0-7.1-3.17-7.1-7.06V90.72
				l74.33-53.61l74.29,52.59V177.86z M190.71,84.6c-1.11,1.53-2.75,2.53-4.62,2.83c-1.87,0.3-3.73-0.15-5.29-1.28l-79.49-56.27
				c-1.24-0.87-2.89-0.87-4.11,0.02L19.17,86.18c-1.52,1.11-3.39,1.56-5.26,1.26c-1.87-0.3-3.51-1.3-4.62-2.83
				c-2.29-3.16-1.6-7.59,1.55-9.88l82.1-59.65h12.27l83.94,59.65C192.31,77.01,193,81.45,190.71,84.6z"/>
		</g>
	</g>
</g>
<g id="Layer_3" class="st0">
	<g class="st2">
		<g>
			<path class="st3" d="M100,94.38c-3.11,0-5.63-2.52-5.63-5.63c0-3.11,2.52-5.63,5.63-5.63c1.5,0,2.91,0.58,3.98,1.65
				c2.2,2.2,5.76,2.2,7.95,0c2.2-2.2,2.2-5.76,0-7.95c-1.81-1.81-3.96-3.16-6.31-3.99v-6.58c0-3.11-2.52-5.63-5.63-5.63
				s-5.63,2.52-5.63,5.63v6.58c-6.43,2.27-11.25,8.43-11.25,15.92c0,9.33,7.55,16.88,16.88,16.88c3.11,0,5.63,2.52,5.63,5.63
				c0,3.11-2.52,5.63-5.63,5.63c-1.5,0-2.91-0.58-3.98-1.65c-2.2-2.2-5.76-2.2-7.95,0c-2.2,2.2-2.2,5.76,0,7.95
				c1.81,1.81,3.96,3.16,6.31,3.99v6.58c0,3.11,2.52,5.63,5.63,5.63s5.63-2.52,5.63-5.63v-6.58c6.43-2.27,11.25-8.43,11.25-15.92
				C116.88,101.92,109.33,94.38,100,94.38z"/>
		</g>
	</g>
	<g class="st2">
		<g>
			<path class="st3" d="M196,99.99c0-25.54-10.02-49.62-28.2-67.8C149.62,14.01,125.54,4,100,4S50.38,14.01,32.2,32.2S4,74.46,4,100
				s10.01,49.62,28.2,67.8S74.46,196,100,196c52.86,0,95.99-43.13,96-95.99C196,100.01,196,100,196,99.99
				C196,100,196,99.99,196,99.99z M105.63,15.44c42.26,2.78,76.15,36.68,78.93,78.93h-22.94c-2.68-29.64-26.35-53.31-55.99-55.99
				V15.44z M150.63,100c0,13.94-5.66,26.58-14.8,35.74c-0.01,0.01-0.03,0.03-0.04,0.04c-0.01,0.01-0.03,0.03-0.04,0.04
				c-9.16,9.14-21.8,14.8-35.74,14.8c-27.91,0-50.63-22.71-50.63-50.63S72.09,49.38,100,49.38S150.63,72.09,150.63,100z M100,184.75
				c-46.73,0-84.75-38.02-84.75-84.75c0-44.84,35.01-81.65,79.13-84.56v22.94C62.88,41.24,38.13,67.78,38.13,100
				c0,34.12,27.76,61.88,61.88,61.88c15.04,0,28.84-5.39,39.57-14.35l16.21,16.21C140.87,176.81,121.35,184.75,100,184.75z
				 M163.74,155.79l-16.21-16.21c7.82-9.38,12.93-21.18,14.09-34.02h22.94C183.3,124.69,175.66,142.19,163.74,155.79z"/>
		</g>
	</g>
</g>
<g id="Layer_4">
	<path class="st3" d="M199.36,54.43C199.36,24.42,174.94,0,144.93,0c-17.97,0-33.88,8.79-43.8,22.24l-10.65-3.2
		c-0.09-5.22-4.35-9.44-9.59-9.44c-5.3,0-9.61,4.31-9.61,9.61c0,1.36,0.29,2.65,0.81,3.83l-9.44,16.38
		c-1.27-0.62-2.67-0.99-4.17-0.99c-1.5,0-2.89,0.37-4.15,0.98L41.55,23.24c0.57-1.23,0.92-2.59,0.92-4.03c0-5.3-4.31-9.61-9.61-9.61
		c-5.3,0-9.61,4.31-9.61,9.61c0,2.58,1.04,4.92,2.7,6.65L11.61,54.55c-0.39-0.05-0.77-0.12-1.16-0.12c-5.3,0-9.61,4.31-9.61,9.61
		s4.31,9.61,9.61,9.61c0.61,0,1.21-0.07,1.79-0.18l11,18.86c-13.51,9.3-22.4,24.87-22.4,42.47c0,28.42,23.12,51.54,51.54,51.54
		c2.67,0,5.44-0.24,8.47-0.75l3.17-0.53l-8.03-46.65l46.66,8.03l0.53-3.18c0.5-3.05,0.75-5.82,0.75-8.46
		c0-28.42-23.12-51.55-51.55-51.55c-8.52,0-16.55,2.11-23.64,5.79L17.75,70.2c1.41-1.67,2.3-3.8,2.3-6.16c0-2.58-1.04-4.92-2.7-6.65
		L31.69,28.7c0.39,0.05,0.77,0.12,1.17,0.12c1.49,0,2.89-0.37,4.15-0.98L49.78,44c-0.57,1.23-0.91,2.59-0.91,4.03
		c0,5.3,4.31,9.61,9.61,9.61c5.3,0,9.61-4.31,9.61-9.61c0-1.36-0.29-2.65-0.8-3.83l9.44-16.38c1.27,0.62,2.67,0.99,4.17,0.99
		c3.06,0,5.76-1.47,7.52-3.71l9.07,2.73c-4.43,7.87-6.99,16.94-6.99,26.6c0,26.73,19.38,48.98,44.83,53.53v7.3h-6.4v67.24
		c0,8.83,7.18,16.01,16.01,16.01c8.83,0,16.01-7.18,16.01-16.01v-67.24h-6.4v-7.3C179.97,103.41,199.36,81.17,199.36,54.43z
		 M56.6,179.7c-1.47,0.15-2.86,0.23-4.22,0.23c-13.8,0-26.16-6.24-34.45-16.03l31.44-26.2L56.6,179.7z M97.52,134.8
		c0,1.35-0.07,2.75-0.23,4.22l-42.02-7.23V89.8C78.81,91.3,97.52,110.88,97.52,134.8z M48.87,89.84v39.95L14.16,158.7
		c-4.36-6.94-6.92-15.12-6.92-23.9c0-15.25,7.62-28.73,19.24-36.91l3.61,6.19l5.53-3.23l-3.65-6.26
		C37.11,91.96,42.82,90.3,48.87,89.84z M7.24,64.04c0-1.77,1.44-3.2,3.2-3.2c1.76,0,3.2,1.44,3.2,3.2c0,1.77-1.44,3.2-3.2,3.2
		C8.68,67.24,7.24,65.81,7.24,64.04z M32.86,22.41c-1.77,0-3.2-1.44-3.2-3.2s1.44-3.2,3.2-3.2c1.76,0,3.2,1.44,3.2,3.2
		S34.62,22.41,32.86,22.41z M58.47,51.23c-1.77,0-3.2-1.44-3.2-3.2s1.44-3.2,3.2-3.2c1.76,0,3.2,1.44,3.2,3.2
		S60.24,51.23,58.47,51.23z M80.89,22.41c-1.77,0-3.2-1.44-3.2-3.2s1.44-3.2,3.2-3.2c1.76,0,3.2,1.44,3.2,3.2
		S82.65,22.41,80.89,22.41z M96.9,54.43c0-9.04,2.55-17.47,6.91-24.7l6.33,1.9c-4.31,6.56-6.84,14.38-6.84,22.8
		c0,22.95,18.67,41.63,41.63,41.63c9.83,0,19.38-3.51,26.89-9.88l-4.14-4.88c-6.36,5.39-14.44,8.36-22.75,8.36
		c-19.42,0-35.22-15.8-35.22-35.22c0-7.81,2.58-15.01,6.9-20.85l28.37,8.52c0.06,1.3,0.38,2.53,0.92,3.64L133.03,58.6
		c-1.26-0.6-2.64-0.96-4.12-0.96c-5.3,0-9.61,4.31-9.61,9.61s4.31,9.61,9.61,9.61c5.3,0,9.61-4.31,9.61-9.61
		c0-1.48-0.36-2.86-0.96-4.12l12.86-12.85c1.26,0.6,2.64,0.96,4.12,0.96c5.3,0,9.61-4.31,9.61-9.61s-4.31-9.61-9.61-9.61
		c-3.17,0-5.97,1.57-7.72,3.94l-25.44-7.64c6.25-5.65,14.5-9.11,23.56-9.11c19.42,0,35.22,15.8,35.22,35.22
		c0,8.32-2.97,16.39-8.36,22.75l4.88,4.14c6.37-7.51,9.88-17.06,9.88-26.89c0-22.95-18.67-41.63-41.63-41.63
		c-12.07,0-22.92,5.19-30.53,13.42l-6.75-2.03c8.81-10.85,22.24-17.8,37.28-17.8c26.48,0,48.03,21.55,48.03,48.03
		s-21.55,48.03-48.03,48.03S96.9,80.92,96.9,54.43z M151.33,41.63c0-1.77,1.44-3.2,3.2-3.2c1.76,0,3.2,1.44,3.2,3.2
		s-1.44,3.2-3.2,3.2C152.77,44.83,151.33,43.39,151.33,41.63z M132.12,67.24c0,1.77-1.44,3.2-3.2,3.2c-1.77,0-3.2-1.44-3.2-3.2
		s1.44-3.2,3.2-3.2C130.68,64.04,132.12,65.47,132.12,67.24z M154.53,121.68v6.4h-19.21v-6.4H154.53z M144.93,192.12
		c-5.3,0-9.61-4.31-9.61-9.61v-48.03h19.21v48.03C154.53,187.81,150.22,192.12,144.93,192.12z M148.13,115.27h-6.4v-6.57
		c1.07,0.06,2.12,0.16,3.2,0.16c1.08,0,2.14-0.1,3.2-0.16V115.27z"/>
	<path class="st3" d="M70.58,199l3.15-0.52c21.72-3.6,38.73-20.61,42.33-42.33l0.53-3.16l-55.21-9.2L70.58,199z M75.82,191.53
		l-6.66-39.94l39.94,6.66C105.17,174.71,92.29,187.59,75.82,191.53z"/>
	<path class="st3" d="M148.13,182.51c0,1.77-1.43,3.2-3.2,3.2c-1.77,0-3.2-1.43-3.2-3.2s1.43-3.2,3.2-3.2
		C146.69,179.31,148.13,180.74,148.13,182.51z"/>
</g>
</svg>
